<svg xmlns="http://www.w3.org/2000/svg" viewBox="0 0 64 64">
  <rect x="0" y="0" width="64" height="64" rx="9" fill="#ffffff"/>
  <g fill="#17150f">
  <g transform="translate(11.293 49.000) scale(0.04722 -0.04722)"><path d="M-22 0Q-36 0 -36 10Q-36 21 -16 24L4 27Q26 30 34.5 37.5Q43 45 47 66L183 654Q188 675 183.0 682.0Q178 689 158 693L138 697Q125 700 125 708Q125 720 143 720H324Q339 720 336 708Q334 699 323 697L295 693Q273 690 265.0 682.0Q257 674 252 653L122 93Q114 57 132.0 41.0Q150 25 184 25Q222 25 262.0 54.0Q302 83 328 145L358 215Q363 228 374 228Q389 228 384 211L328 23Q322 0 298 0Z"/></g>
  <g transform="translate(31.504 49.000) scale(0.04722 -0.04722)"><path d="M-22 0Q-36 0 -36 10Q-36 21 -16 24L4 27Q26 30 34.0 37.5Q42 45 47 66L183 654Q188 674 183.0 681.5Q178 689 158 693L138 697Q125 700 125 708Q125 720 143 720H334Q401 720 443.0 683.0Q485 646 485 587Q485 531 445.0 481.0Q405 431 338 408Q333 407 333.0 403.5Q333 400 338 398Q390 379 417.0 337.0Q444 295 444 239Q444 173 409.0 118.5Q374 64 314.5 32.0Q255 0 182 0ZM252 411Q296 411 332.5 434.0Q369 457 391.0 496.5Q413 536 413 583Q413 636 386.5 665.5Q360 695 313 695Q261 695 252 655L209 466Q202 436 212.0 423.5Q222 411 252 411ZM185 25Q238 25 280.0 53.5Q322 82 346.5 132.0Q371 182 371 244Q371 312 339.5 349.0Q308 386 251 386Q189 386 178 333L123 94Q107 25 185 25Z"/></g>
  </g>
</svg>
